<svg id="Capa_1" enable-background="new 0 0 512 512" height="512" viewBox="0 0 512 512" width="512" xmlns="http://www.w3.org/2000/svg"><g><g><g><path d="m374.44 322.425c-.001-.002-.002-.004-.003-.006-.002-.004-.003-.007-.005-.011-.001-.002-.002-.003-.003-.005-4.095-8.559-8.95-17.034-14.416-25.169-2.564-3.836-5.335-7.728-8.238-11.565-.002-.003-.004-.005-.006-.007-.2-.271-.404-.546-.611-.818l-.152-.2c-1.421-1.867-2.841-3.687-4.239-5.433-3.838-22.254 5.402-60.461 14.953-87.749.027-.038.058-.08.092-.13l.14-.179c.029-.037.052-.076.081-.113.011-.015.025-.027.036-.042 25.114-33.137 27.748-78.646 6.553-113.246-1.338-2.182-2.069-4.108-2.179-5.77-.14-1.997-.21-4.028-.21-6.037 0-6.226.679-12.462 2.02-18.542l10.454-34.503c.918-3.029.347-6.315-1.539-8.857-1.889-2.544-4.867-4.043-8.033-4.043h-47.693c-4.026 0-7.66 2.415-9.22 6.127l-11.425 27.193c-.13.31-.244.625-.342.946l-.282.901c-2.749 8.66-11.058 14.571-20.128 14.441l-49.695-.858c-8.977-.155-16.756-5.896-19.359-14.286l-.044-.144c-.102-.339-.221-.672-.358-.998l-11.416-27.193c-1.559-3.713-5.193-6.129-9.22-6.129h-47.703c-3.166 0-6.145 1.499-8.031 4.042-1.886 2.542-2.457 5.828-1.539 8.857l10.456 34.509c1.849 8.342 2.447 16.869 1.774 25.419-.097 1.344-.671 2.937-1.712 4.742-20.928 36.362-18.516 80.885 6.146 113.428.008.011.018.02.027.031.034.045.062.092.097.137.058.073.116.146.186.236 10.157 28.979 19.042 66.623 14.773 88.813-1.244 1.566-2.383 3.036-3.449 4.448l-.75 1c-.001.002-.002.004-.003.005-3.187 4.211-6.34 8.674-9.374 13.269-5.473 8.302-10.33 16.975-14.434 25.777-.001.002-.002.004-.003.006-29.936 64.257-8.596 124.773 15.827 181.249 1.584 3.66 5.191 6.03 9.179 6.03h189.16c3.988 0 7.596-2.37 9.179-6.03 11.797-27.278 24.438-59.549 28.738-92.068 4.345-32.846-.253-62.767-14.055-91.471 0-.001-.001-.002-.002-.004zm-119.834 68.342c-15.512-10.233-53.935-35.657-80.853-54.137-.108-.074-15.412-10.728-15.56-10.833 2.827-5.39 5.957-10.696 9.352-15.846 1.86-2.815 3.767-5.577 5.698-8.25h165.517c1.608 2.224 3.16 4.452 4.64 6.666 3.325 4.95 6.393 10.023 9.164 15.156-26.006 18.197-79.404 55.813-96.754 68.038-.378-.249-.794-.524-1.204-.794zm-92.038-348.108c-.053-.234-.114-.467-.184-.696l-6.655-21.963h27.576l8.655 20.617c5.236 16.534 20.494 27.827 38.045 28.129l49.694.86c.231.004.461.006.692.006 17.599-.001 33.509-11.591 38.843-28.391.064-.202.128-.404.191-.606l8.662-20.615h27.568l-6.654 21.963c-.07.232-.133.469-.186.706-1.714 7.627-2.583 15.458-2.583 23.275 0 2.472.087 4.971.256 7.387.32 4.891 2.03 9.896 5.08 14.87 16.102 26.287 14.909 60.557-2.618 86.756h-47.743c-5.523 0-10 4.478-10 10 0 5.523 4.477 10 10 10h38.275c-6.783 21.389-16.863 59.597-12.572 86.743h-142.444c4.27-27.04-5.265-64.004-12.534-86.743h38.862c5.523 0 10-4.477 10-10 0-5.522-4.477-10-10-10h-48.325c-17.122-25.708-18.008-59.486-1.941-87.403 2.56-4.439 4.017-8.911 4.326-13.226.834-10.601.065-21.257-2.286-31.669zm-12.713 301.735c27.563 19.381 80.296 54.216 96.145 64.657v82.949h-77.983c-24.428-57.704-35.049-101.88-18.162-147.606zm194.125 147.606h-77.98v-83.153c.445-.314.919-.647 1.426-1.005 16.813-11.845 66.881-47.113 93.688-65.888 17.968 46.722 7.007 92.92-17.134 150.046z"/><path d="m246.58 188.779c1.6 3.844 5.554 6.385 9.729 6.166 4.121-.216 7.755-3.004 9.021-6.93 1.279-3.967-.113-8.454-3.424-10.991-3.364-2.578-8.11-2.73-11.636-.384-3.918 2.606-5.503 7.793-3.69 12.139z"/><path d="m502 220.674h-39.834v-17.085c0-3.733-2.079-7.155-5.393-8.875-3.313-1.72-7.31-1.453-10.362.697l-67.488 47.489c-2.661 1.872-4.245 4.923-4.245 8.178s1.584 6.306 4.245 8.179l67.488 47.488c1.717 1.208 3.732 1.821 5.756 1.821 1.575 0 3.156-.372 4.606-1.125 3.314-1.72 5.393-5.142 5.393-8.875v-17.084h39.834c5.522 0 10-4.477 10-10v-40.809c0-5.522-4.478-9.999-10-9.999zm-10 40.808h-39.834c-5.522 0-10 4.478-10 10v7.82l-40.111-28.225 40.111-28.225v7.82c0 5.523 4.478 10 10 10h39.834z"/><path d="m137.322 251.078c0-3.255-1.583-6.306-4.245-8.178l-67.488-47.489c-3.054-2.15-7.048-2.417-10.362-.697-3.313 1.72-5.393 5.142-5.393 8.875v17.085h-39.834c-5.523 0-10 4.478-10 10v40.809c0 5.523 4.477 10 10 10h39.834v17.084c0 3.733 2.08 7.155 5.393 8.875 1.45.753 3.031 1.125 4.606 1.125 2.024 0 4.039-.613 5.756-1.821l67.488-47.488c2.661-1.874 4.245-4.925 4.245-8.18zm-67.488 28.225v-7.82c0-5.522-4.477-10-10-10h-39.834v-20.809h39.834c5.523 0 10-4.477 10-10v-7.82l40.111 28.225z"/></g></g></g></svg>